<svg width="110" height="26" viewBox="0 0 110 26" fill="none" xmlns="http://www.w3.org/2000/svg">
<g clip-path="url(#clip0_2_4)">
<path fill-rule="evenodd" clip-rule="evenodd" d="M73.2384 14.3073C72.5203 13.8264 71.6483 13.586 70.6225 13.586C69.5966 13.586 68.6733 13.8337 67.8526 14.3291C67.0319 14.8245 66.3871 15.5457 65.9181 16.4928C65.4638 17.4253 65.2366 18.5254 65.2366 19.793C65.2366 21.0606 65.4638 22.168 65.9181 23.1151C66.3871 24.0476 67.0319 24.7615 67.8526 25.2569C68.6733 25.7523 69.5966 26 70.6225 26C71.6483 26 72.5203 25.7596 73.2384 25.2788C73.9712 24.7834 74.4988 24.1277 74.8212 23.3118V25.847H77.8989V9H74.8212V16.2524C74.4988 15.4365 73.9712 14.7881 73.2384 14.3073ZM69.2595 17.214C69.8457 16.5875 70.6225 16.2743 71.5897 16.2743C72.5277 16.2743 73.2971 16.5948 73.8979 17.2359C74.5135 17.8624 74.8212 18.7148 74.8212 19.793C74.8212 20.8566 74.5135 21.709 73.8979 22.3501C73.2971 22.9766 72.5277 23.2899 71.5897 23.2899C70.6225 23.2899 69.8457 22.9839 69.2595 22.372C68.6733 21.7454 68.3802 20.8858 68.3802 19.793C68.3802 18.7002 68.6733 17.8406 69.2595 17.214Z" fill="#E9EDED"/>
<path d="M31.0996 16.0557C31.5539 15.2835 32.1548 14.6788 32.9022 14.2417C33.6497 13.79 34.485 13.5642 35.4083 13.5642V16.8644H34.507C32.2354 16.8644 31.0996 17.9134 31.0996 20.0116V25.847H28V13.739H31.0996V16.0557Z" fill="#E9EDED"/>
<path fill-rule="evenodd" clip-rule="evenodd" d="M47.4779 19.3339C47.4779 19.6399 47.4412 19.9896 47.368 20.383H38.4428C38.4868 21.4612 38.7799 22.2553 39.3221 22.7653C39.8644 23.2752 40.5385 23.5302 41.3446 23.5302C42.0627 23.5302 42.6563 23.3554 43.1252 23.0057C43.6089 22.656 43.9166 22.1825 44.0485 21.5851H47.324C47.1628 22.4302 46.8184 23.1878 46.2908 23.8581C45.7632 24.5283 45.0817 25.0528 44.2464 25.4317C43.4257 25.8105 42.5097 25.9999 41.4985 25.9999C40.3114 25.9999 39.2562 25.7522 38.3329 25.2568C37.4096 24.7468 36.6915 24.0256 36.1786 23.0931C35.6656 22.1606 35.4092 21.0605 35.4092 19.7929C35.4092 18.5253 35.6656 17.4252 36.1786 16.4927C36.6915 15.5456 37.4096 14.8244 38.3329 14.329C39.2562 13.8336 40.3114 13.5859 41.4985 13.5859C42.7002 13.5859 43.7481 13.8336 44.6421 14.329C45.5507 14.8244 46.2468 15.5092 46.7304 16.3834C47.2287 17.2431 47.4779 18.2266 47.4779 19.3339ZM44.3563 19.028C44.4002 18.0372 44.1364 17.2868 43.5649 16.7768C43.008 16.2669 42.3192 16.0119 41.4985 16.0119C40.6631 16.0119 39.9597 16.2669 39.3881 16.7768C38.8165 17.2868 38.5014 18.0372 38.4428 19.028H44.3563Z" fill="#E9EDED"/>
<path d="M57.9659 14.8535C56.9253 14.0085 55.621 13.5859 54.0529 13.5859C52.8658 13.5859 51.8106 13.8336 50.8873 14.329C49.964 14.8244 49.2459 15.5456 48.733 16.4927C48.22 17.4252 47.9636 18.5253 47.9636 19.7929C47.9636 21.0605 48.22 22.1606 48.733 23.0931C49.2459 24.0256 49.964 24.7468 50.8873 25.2568C51.8106 25.7522 52.8658 25.9999 54.0529 25.9999C55.621 25.9999 56.9253 25.5774 57.9659 24.7323C59.0211 23.8872 59.6805 22.7361 59.9443 21.2791H56.6689C56.537 21.9202 56.2365 22.4302 55.7676 22.809C55.2986 23.1732 54.705 23.3554 53.9869 23.3554C53.1662 23.3554 52.4774 23.0567 51.9205 22.4593C51.3783 21.8473 51.1071 20.9585 51.1071 19.7929C51.1071 18.6273 51.3783 17.7458 51.9205 17.1484C52.4774 16.5364 53.1662 16.2304 53.9869 16.2304C54.705 16.2304 55.2986 16.4199 55.7676 16.7987C56.2365 17.163 56.537 17.6656 56.6689 18.3067H59.9443C59.6805 16.8497 59.0211 15.6986 57.9659 14.8535Z" fill="#E9EDED"/>
<path d="M64.1472 13.739V25.847H61.0476V13.739H64.1472Z" fill="#E9EDED"/>
<path d="M82.7083 13.739V25.847H79.6087V13.739H82.7083Z" fill="#E9EDED"/>
<path d="M92.7888 13.739L89.7112 22.7654L86.6115 13.739H83.2921L87.7986 25.847H91.5797L96.0863 13.739H92.7888Z" fill="#E9EDED"/>
<path d="M99.8096 13.739V25.847H96.71V13.739H99.8096Z" fill="#E9EDED"/>
<path d="M110 23.268H104.021L109.78 16.165V13.739H100.767V16.2961H106.241L100.635 23.3992V25.847H110V23.268Z" fill="#E9EDED"/>
<path d="M62.59 12.6426C63.6018 12.6426 64.422 11.8272 64.422 10.8213C64.422 9.81542 63.6018 9 62.59 9C61.5783 9 60.7581 9.81542 60.7581 10.8213C60.7581 11.8272 61.5783 12.6426 62.59 12.6426Z" fill="#E9EDED"/>
<path d="M82.9796 10.8213C82.9796 11.8272 82.1594 12.6426 81.1477 12.6426C80.1359 12.6426 79.3157 11.8272 79.3157 10.8213C79.3157 9.81542 80.1359 9 81.1477 9C82.1594 9 82.9796 9.81542 82.9796 10.8213Z" fill="#E9EDED"/>
<path d="M98.258 12.6426C99.2698 12.6426 100.09 11.8272 100.09 10.8213C100.09 9.81542 99.2698 9 98.258 9C97.2463 9 96.4261 9.81542 96.4261 10.8213C96.4261 11.8272 97.2463 12.6426 98.258 12.6426Z" fill="#E9EDED"/>
<path d="M13 13H0V26H13V13Z" fill="#00A1FF"/>
<path d="M26 7C26 3.13401 22.866 0 19 0C15.134 0 12 3.13401 12 7C12 10.866 15.134 14 19 14C22.866 14 26 10.866 26 7Z" fill="#E00E00"/>
</g>
<defs>
<clipPath id="clip0_2_4">
<rect width="110" height="26" fill="white"/>
</clipPath>
</defs>
</svg>
